<?xml version="1.0" encoding="UTF-8"?>
<svg version="1.1" viewBox="0 0 1500 1500" xmlns="http://www.w3.org/2000/svg">
<rect width="1500" height="1500"/>
<g transform="matrix(.66667 0 0 .66667 250 250)">
<svg width="1500" height="1500" data-background-color="#ffffff" viewBox="0 0 280 280" xmlns="http://www.w3.org/2000/svg" xmlns:xlink="http://www.w3.org/1999/xlink">
<g transform="translate(0 -.00018342)">
<svg width="280" height="280" viewBox="0 0 280 280">
<svg width="280" height="280" viewBox="0 0 280 280">
<svg width="280" height="280" viewBox="0 0 280 280">
<svg width="280" height="280" viewBox="0 0 280 280">
<svg width="280" height="280" viewBox="0 0 280 280">
<g transform="translate(81.034 74.003)">
<svg width="117.93" height="131.99" viewBox="0 0 117.9329831645498 131.99326582148888">
<svg class="icon-xg-0" width="117.93" height="131.99" enable-background="new 0 0 90 90" data-fill-palette-color="accent" version="1.1" viewBox="5.687 1 78.62599999999999 88" xml:space="preserve" xmlns="http://www.w3.org/2000/svg" xmlns:xlink="http://www.w3.org/1999/xlink"><path d="m45.699 9.123c9.363 0 16.953 7.59 16.953 16.953 0 1.638-0.245 3.216-0.678 4.714 8.058 1.31 14.216 8.318 14.216 16.747 0 9.363-7.59 16.988-16.952 16.988-4.582 0-8.724-1.763-11.772-4.719 1.133 4.822 5.083 15.657 8.937 21.072h-22.806c4.169-5.415 7.988-16.419 9.027-21.167-3.056 3.01-7.232 4.745-11.862 4.745-9.363 0-16.953-7.59-16.953-16.953 0-8.896 6.856-16.178 15.571-16.883-0.402-1.448-0.634-2.967-0.634-4.543 1e-3 -9.364 7.591-16.954 16.953-16.954m0-8.123c-13.323 0-24.252 10.445-25.031 23.576-8.832 3.926-14.981 12.821-14.981 22.926 0 13.319 10.438 24.245 23.563 25.031-0.698 1.332-1.406 2.502-2.089 3.389l-10.069 13.078h55.061l-9.132-12.833c-0.671-0.942-1.382-2.178-2.092-3.576 13.04-0.875 23.384-11.778 23.384-25.054 0-9.653-5.39-18.117-13.553-22.31-0.449-13.435-11.518-24.227-25.061-24.227z" fill="#fff" data-fill-palette-color="accent"/></svg>
</svg>
</g>
<g fill="#fff">
<path d="m15.235 107.91c-1.599-0.588-3.068-1.441-4.408-2.559-1.332-1.121-2.436-2.446-3.313-3.974-0.879-1.522-1.407-3.198-1.585-5.029-0.186-1.827 0.085-3.727 0.811-5.701 0.86-2.336 2.132-4.136 3.818-5.402 1.682-1.274 3.504-1.997 5.468-2.168l0.516 2.498c-1.371 0.141-2.552 0.518-3.544 1.132-0.998 0.611-1.823 1.35-2.475 2.216-0.65 0.86-1.152 1.771-1.505 2.733-0.582 1.58-0.782 3.088-0.601 4.522 0.187 1.437 0.65 2.76 1.39 3.969 0.746 1.211 1.688 2.263 2.826 3.157 1.139 0.894 2.373 1.586 3.704 2.076 1.455 0.536 2.938 0.801 4.45 0.797 1.509 3e-3 2.936-0.252 4.281-0.764 1.351-0.51 2.549-1.253 3.596-2.229 1.039-0.972 1.816-2.161 2.334-3.566 0.361-0.98 0.56-2.052 0.598-3.215s-0.136-2.326-0.523-3.49c-0.381-1.161-1.038-2.219-1.971-3.172l1.895-1.738c1.105 1.024 1.906 2.269 2.401 3.734 0.496 1.466 0.721 2.981 0.678 4.547-0.044 1.565-0.311 3.013-0.801 4.343-0.662 1.799-1.66 3.307-2.995 4.524-1.326 1.214-2.838 2.132-4.535 2.756-1.695 0.617-3.457 0.926-5.287 0.925-1.827-6e-3 -3.568-0.314-5.223-0.922z" data-fill-palette-color="primary"/>
<path d="m42.189 74.598-20.417-14.417 1.543-2.185 19.683 13.899c0.832 0.587 1.484 0.824 1.956 0.709 0.467-0.119 0.852-0.393 1.155-0.822 0.273-0.386 0.502-0.803 0.687-1.25 0.191-0.444 0.341-0.835 0.45-1.173l2.045 0.858c-0.119 0.527-0.334 1.125-0.643 1.794-0.306 0.664-0.61 1.21-0.914 1.639-0.695 0.984-1.542 1.567-2.542 1.749-0.991 0.18-1.992-0.087-3.003-0.801z" data-fill-palette-color="primary"/>
<path d="m54.063 53.604-7.896-9.099 2.02-1.754 7.589 8.745c1.531 1.764 2.978 2.817 4.341 3.159 1.362 0.351 2.636 0.012 3.822-1.017 0.794-0.689 1.413-1.53 1.855-2.523 0.443-0.992 0.672-2.059 0.687-3.199 0.015-1.15-0.197-2.278-0.638-3.385l-8.466-9.755 2.02-1.753 11.332 13.057c0.24 0.276 0.475 0.425 0.704 0.446 0.229 0.03 0.473-0.049 0.732-0.238l1.393 1.605c-0.224 0.229-0.399 0.408-0.526 0.536-0.132 0.132-0.258 0.251-0.379 0.356-0.427 0.3-0.906 0.438-1.437 0.414-0.526-0.028-0.972-0.232-1.337-0.611l-1.866-2.028c0.356 1.771 0.248 3.494-0.323 5.171-0.577 1.681-1.538 3.106-2.886 4.275-1.628 1.413-3.346 1.917-5.152 1.51-1.816-0.407-3.679-1.711-5.589-3.912z" data-fill-palette-color="primary"/>
<path d="m97.043 36.297c-1.464 0.638-2.986 0.851-4.567 0.639-1.58-0.212-2.972-0.741-4.176-1.588l1.587 3.642-2.196 0.957-11.479-26.346 2.452-1.068 5 11.475c0.286-1.642 0.848-3.11 1.686-4.404 0.837-1.294 2.04-2.282 3.607-2.965 1.324-0.577 2.628-0.815 3.914-0.714 1.289 0.092 2.507 0.439 3.655 1.042s2.168 1.403 3.06 2.401 1.607 2.113 2.144 3.345c0.574 1.318 0.894 2.652 0.96 4.003 0.057 1.347-0.13 2.651-0.56 3.913-0.424 1.259-1.057 2.38-1.899 3.364-0.85 0.98-1.913 1.748-3.188 2.304zm-1.517-1.909c1.013-0.441 1.863-1.055 2.551-1.841s1.185-1.678 1.491-2.675c0.315-0.994 0.443-2.015 0.385-3.064s-0.295-2.053-0.712-3.01c-0.577-1.324-1.401-2.449-2.473-3.376-1.075-0.918-2.267-1.513-3.576-1.785-1.305-0.281-2.632-0.127-3.98 0.461-0.964 0.42-1.766 1.027-2.407 1.822s-1.126 1.688-1.456 2.681c-0.326 0.984-0.51 1.986-0.552 3.006l2.547 5.847c0.382 0.61 0.9 1.107 1.553 1.491 0.656 0.389 1.378 0.655 2.166 0.798 0.794 0.14 1.579 0.183 2.354 0.129 0.783-0.051 1.486-0.212 2.109-0.484z" data-fill-palette-color="primary"/>
<path d="m136.47 2.409-1.11 2.328c-0.443-0.41-0.94-0.765-1.492-1.064-0.558-0.298-1.178-0.544-1.859-0.736-0.675-0.2-1.395-0.341-2.16-0.424-0.757-0.078-1.552-0.075-2.386 9e-3 -2.43 0.244-4.168 0.887-5.214 1.929-1.039 1.041-1.479 2.356-1.319 3.944 0.111 1.099 0.466 1.936 1.065 2.512 0.592 0.569 1.484 0.991 2.676 1.266 1.185 0.282 2.69 0.542 4.513 0.78 2.022 0.218 3.78 0.543 5.274 0.974 1.494 0.425 2.681 1.088 3.561 1.99 0.886 0.901 1.414 2.185 1.581 3.854 0.129 1.284-7e-3 2.422-0.409 3.412s-1.015 1.841-1.84 2.552c-0.824 0.718-1.837 1.288-3.038 1.71-1.194 0.428-2.523 0.715-3.987 0.862-1.437 0.144-2.829 0.131-4.177-0.041-1.348-0.165-2.64-0.484-3.878-0.954-1.231-0.471-2.403-1.113-3.515-1.924l1.147-2.363c0.549 0.473 1.194 0.903 1.936 1.29 0.735 0.388 1.544 0.721 2.428 1 0.891 0.278 1.833 0.468 2.826 0.569 0.999 0.093 2.022 0.088 3.068-0.018 2.218-0.223 3.909-0.801 5.072-1.734 1.157-0.932 1.655-2.196 1.495-3.792-0.115-1.145-0.522-2.034-1.221-2.666-0.692-0.626-1.689-1.098-2.991-1.415-1.297-0.324-2.88-0.603-4.749-0.836-1.978-0.249-3.66-0.578-5.046-0.988-1.386-0.416-2.459-1.04-3.218-1.873-0.753-0.834-1.204-1.996-1.353-3.486-0.173-1.722 0.104-3.221 0.831-4.498 0.728-1.27 1.806-2.288 3.235-3.053 1.428-0.766 3.105-1.245 5.032-1.439 1.232-0.124 2.39-0.113 3.474 0.031 1.077 0.139 2.09 0.398 3.038 0.778s1.851 0.884 2.71 1.514z" data-fill-palette-color="primary"/>
<path d="m156.88 24.738 3.696-24.719 2.646 0.395-3.563 23.832c-0.151 1.007-0.068 1.695 0.246 2.065 0.316 0.363 0.734 0.584 1.254 0.662 0.467 0.07 0.942 0.087 1.425 0.051 0.482-0.029 0.899-0.071 1.25-0.126l0.154 2.214c-0.524 0.13-1.155 0.208-1.892 0.231-0.73 0.025-1.356-1e-3 -1.876-0.078-1.191-0.178-2.093-0.673-2.705-1.484-0.606-0.804-0.818-1.818-0.635-3.042z" data-fill-palette-color="primary"/>
<path d="m185.88 37.587c-1.356-0.569-2.506-1.355-3.449-2.357-0.941-1.008-1.644-2.144-2.11-3.408s-0.686-2.587-0.661-3.969c0.025-1.383 0.322-2.752 0.89-4.108 0.742-1.767 1.828-3.22 3.259-4.359 1.428-1.133 3.042-1.841 4.843-2.124 1.794-0.286 3.6-0.048 5.416 0.714 1.865 0.783 3.306 1.915 4.323 3.395 1.011 1.478 1.608 3.114 1.793 4.91 0.188 1.804-0.083 3.577-0.815 5.32-0.08 0.19-0.158 0.377-0.235 0.561s-0.147 0.317-0.211 0.399l-16.19-6.796c-0.446 1.408-0.572 2.773-0.377 4.097 0.204 1.32 0.688 2.504 1.453 3.554 0.773 1.046 1.764 1.823 2.973 2.33 1.233 0.518 2.53 0.694 3.892 0.53 1.37-0.168 2.485-0.667 3.345-1.497l1.901 1.48c-0.769 0.731-1.704 1.291-2.805 1.68-1.102 0.389-2.273 0.558-3.514 0.506-1.247-0.054-2.488-0.341-3.721-0.858zm-2.475-13.629 13.972 5.865c0.481-1.422 0.621-2.785 0.418-4.09-0.206-1.314-0.697-2.483-1.472-3.508-0.784-1.022-1.792-1.791-3.026-2.31-1.233-0.518-2.483-0.696-3.749-0.534-1.262 0.17-2.437 0.648-3.524 1.433-1.079 0.781-1.952 1.83-2.619 3.144z" data-fill-palette-color="primary"/>
<path d="m213.35 42.996 7.635-9.32 2.069 1.695-7.337 8.957c-1.48 1.807-2.273 3.411-2.38 4.812-0.116 1.402 0.434 2.6 1.649 3.596 0.813 0.666 1.747 1.134 2.799 1.402 1.053 0.269 2.143 0.314 3.269 0.136 1.136-0.179 2.212-0.579 3.229-1.201l8.184-9.992 2.07 1.695-10.955 13.375c-0.232 0.283-0.339 0.54-0.321 0.769 9e-3 0.231 0.128 0.458 0.359 0.681l-1.347 1.645c-0.264-0.182-0.47-0.324-0.617-0.428-0.153-0.108-0.291-0.212-0.415-0.314-0.368-0.37-0.585-0.819-0.651-1.346-0.062-0.523 0.064-0.997 0.376-1.421l1.684-2.182c-1.685 0.65-3.402 0.835-5.151 0.555-1.754-0.284-3.321-0.991-4.701-2.121-1.668-1.366-2.454-2.974-2.359-4.823 0.094-1.858 1.065-3.915 2.911-6.17z" data-fill-palette-color="primary"/>
<path d="m240.57 79.718-1.358 1.819c-0.188-0.128-0.497-0.314-0.927-0.557-0.425-0.246-0.884-0.583-1.378-1.008-0.49-0.42-0.947-0.933-1.372-1.538-0.436-0.621-0.727-1.291-0.873-2.009-0.148-0.709-0.092-1.394 0.167-2.056s0.743-1.241 1.451-1.737l12.02-8.434-1.629-2.321 1.741-1.221 1.628 2.321 5.671-3.979 1.536 2.189-5.67 3.979 2.712 3.865-1.741 1.221-2.712-3.864-11.406 8.003c-0.574 0.468-0.871 1.006-0.892 1.614s0.149 1.168 0.508 1.68c0.424 0.605 0.909 1.081 1.454 1.43 0.555 0.35 0.911 0.551 1.07 0.603z" data-fill-palette-color="primary"/>
<path d="m262.72 107.23-11.184 4.372-0.974-2.492 10.673-4.172c2.151-0.841 3.621-1.851 4.41-3.031 0.793-1.189 0.913-2.49 0.361-3.902-0.363-0.93-0.963-1.76-1.799-2.491s-1.798-1.283-2.888-1.658c-1.092-0.381-2.222-0.511-3.389-0.39l-11.695 4.571-0.974-2.491 26.766-10.462 0.973 2.492-11.993 4.687c1.715 0.201 3.259 0.816 4.633 1.844 1.373 1.028 2.361 2.31 2.961 3.848 0.431 1.103 0.602 2.115 0.512 3.036s-0.414 1.766-0.971 2.534c-0.563 0.77-1.294 1.46-2.193 2.068-0.907 0.605-1.983 1.15-3.229 1.637z" data-fill-palette-color="primary"/>
<path d="m22.709 176.41c1.641-0.609 3.36-0.921 5.158-0.935 1.789-0.018 3.537 0.274 5.244 0.875 1.709 0.608 3.246 1.564 4.61 2.867 1.358 1.306 2.413 2.973 3.165 5 0.892 2.402 1.106 4.661 0.642 6.779-0.472 2.113-1.415 3.893-2.83 5.341l-2.066-1.607c0.97-1.02 1.64-2.103 2.01-3.249 0.364-1.143 0.513-2.27 0.449-3.381-0.065-1.112-0.28-2.16-0.647-3.146-0.602-1.622-1.458-2.933-2.567-3.935-1.101-0.997-2.346-1.72-3.734-2.17-1.394-0.448-2.836-0.64-4.324-0.577-1.482 0.06-2.907 0.344-4.273 0.851-1.497 0.556-2.835 1.34-4.014 2.352s-2.123 2.169-2.833 3.469-1.149 2.68-1.316 4.141c-0.161 1.458 0.025 2.908 0.56 4.349 0.375 1.011 0.937 1.98 1.687 2.909 0.752 0.935 1.664 1.728 2.736 2.38 1.079 0.65 2.302 1.037 3.668 1.162l-0.316 2.62c-1.547-0.057-3.006-0.496-4.374-1.315-1.367-0.813-2.555-1.845-3.566-3.095s-1.77-2.559-2.277-3.925c-0.685-1.847-0.919-3.691-0.701-5.532 0.227-1.837 0.795-3.567 1.704-5.19 0.912-1.616 2.082-3.034 3.511-4.252 1.433-1.227 2.997-2.156 4.694-2.786z" data-fill-palette-color="secondary"/>
<path d="m31.525 220.24 20.968-14.865 1.593 2.247-20.211 14.329c-0.858 0.608-1.307 1.159-1.348 1.653-0.047 0.498 0.086 0.967 0.397 1.407 0.281 0.396 0.605 0.762 0.974 1.096 0.368 0.335 0.698 0.611 0.99 0.828l-1.533 1.686c-0.475-0.291-0.983-0.702-1.523-1.233-0.536-0.526-0.96-1.008-1.271-1.448-0.72-1.015-0.997-2.034-0.833-3.056 0.166-1.031 0.765-1.913 1.797-2.644z" data-fill-palette-color="secondary"/>
<path d="m51.601 236.08 8.115-9.359 2.081 1.805-7.801 8.997c-1.569 1.81-2.435 3.433-2.597 4.869-0.153 1.436 0.382 2.683 1.604 3.742 0.814 0.706 1.759 1.212 2.832 1.518 1.079 0.31 2.198 0.391 3.357 0.242 1.169-0.149 2.288-0.531 3.358-1.145l8.697-10.03 2.074 1.798-11.64 13.424c-0.248 0.287-0.369 0.552-0.361 0.797 7e-3 0.235 0.125 0.47 0.355 0.704l-1.432 1.652c-0.264-0.194-0.47-0.346-0.62-0.459-0.155-0.116-0.292-0.227-0.413-0.331-0.372-0.393-0.583-0.862-0.631-1.406s0.094-1.028 0.427-1.453l1.791-2.186c-1.753 0.62-3.526 0.761-5.32 0.421-1.793-0.339-3.384-1.111-4.771-2.314-1.674-1.452-2.433-3.131-2.276-5.039 0.152-1.903 1.209-3.985 3.171-6.247z" data-fill-palette-color="secondary"/>
<path d="m88.607 270.6c-1.507-0.655-2.735-1.653-3.683-2.994s-1.524-2.763-1.726-4.267l-1.632 3.754-2.261-0.983 11.78-27.097 2.526 1.099-5.13 11.799c1.437-0.935 2.933-1.54 4.49-1.814 1.565-0.278 3.153-0.066 4.764 0.634 1.361 0.592 2.455 1.405 3.282 2.439 0.833 1.037 1.423 2.201 1.77 3.491 0.355 1.286 0.471 2.614 0.347 3.982-0.126 1.375-0.464 2.694-1.012 3.957-0.592 1.361-1.374 2.534-2.347 3.519-0.975 0.991-2.085 1.767-3.33 2.329s-2.536 0.868-3.872 0.918c-1.332 0.059-2.654-0.196-3.966-0.766zm0.376-2.492c1.044 0.454 2.102 0.664 3.177 0.63 1.074-0.034 2.092-0.281 3.054-0.741 0.964-0.466 1.822-1.087 2.573-1.863s1.342-1.659 1.771-2.648c0.592-1.361 0.859-2.769 0.802-4.223-0.063-1.457-0.45-2.771-1.159-3.943-0.707-1.178-1.753-2.068-3.138-2.671-0.995-0.432-2.013-0.61-3.055-0.533-1.048 0.074-2.061 0.334-3.039 0.78-0.969 0.442-1.852 1.005-2.65 1.688l-2.614 6.015c-0.194 0.714-0.207 1.452-0.038 2.215s0.476 1.491 0.922 2.185c0.452 0.697 0.968 1.321 1.549 1.871 0.59 0.547 1.205 0.959 1.845 1.238z" data-fill-palette-color="secondary"/>
<path d="m139.89 255.05-1.594 2.118c-0.359-0.497-0.788-0.951-1.289-1.362-0.5-0.417-1.075-0.795-1.723-1.134-0.643-0.331-1.34-0.618-2.092-0.859-0.746-0.235-1.549-0.395-2.41-0.48-2.496-0.248-4.375 0.047-5.635 0.885-1.267 0.837-1.981 2.074-2.143 3.709-0.112 1.132 0.074 2.047 0.56 2.744s1.301 1.306 2.446 1.827c1.139 0.521 2.6 1.087 4.386 1.7 1.997 0.633 3.704 1.317 5.122 2.053s2.481 1.647 3.189 2.734c0.701 1.086 0.966 2.49 0.796 4.212-0.13 1.311-0.498 2.425-1.104 3.341s-1.395 1.654-2.367 2.213c-0.978 0.552-2.114 0.92-3.41 1.106-1.295 0.179-2.694 0.194-4.197 0.044-1.477-0.147-2.875-0.439-4.196-0.878-1.327-0.446-2.566-1.031-3.718-1.753-1.145-0.722-2.195-1.606-3.147-2.65l1.638-2.155c0.457 0.587 1.016 1.151 1.678 1.692 0.668 0.541 1.418 1.04 2.249 1.497 0.837 0.464 1.748 0.849 2.734 1.154 0.987 0.299 2.02 0.502 3.099 0.609 2.278 0.226 4.097-0.014 5.458-0.722 1.354-0.701 2.112-1.873 2.275-3.516 0.117-1.179-0.11-2.158-0.681-2.936-0.572-0.772-1.481-1.451-2.727-2.036s-2.785-1.186-4.616-1.803c-1.941-0.654-3.569-1.331-4.884-2.03s-2.267-1.546-2.857-2.54c-0.597-0.995-0.819-2.258-0.667-3.788 0.176-1.775 0.762-3.228 1.757-4.36 0.996-1.138 2.29-1.946 3.882-2.423s3.382-0.617 5.368-0.42c1.265 0.126 2.428 0.368 3.488 0.728 1.06 0.366 2.03 0.837 2.91 1.412 0.879 0.575 1.687 1.264 2.423 2.067z" data-fill-palette-color="secondary"/>
<path d="m158.82 275.37-3.803-25.42 2.725-0.408 3.665 24.502c0.156 1.04 0.445 1.69 0.867 1.95 0.423 0.266 0.902 0.36 1.435 0.28 0.48-0.072 0.953-0.196 1.417-0.374 0.465-0.177 0.86-0.347 1.186-0.51l0.813 2.129c-0.474 0.293-1.07 0.56-1.788 0.802-0.711 0.241-1.333 0.401-1.866 0.481-1.231 0.184-2.265-0.028-3.103-0.636-0.845-0.614-1.362-1.546-1.548-2.796z" data-fill-palette-color="secondary"/>
<path d="m194.12 269.39c-1.394 0.583-2.799 0.854-4.216 0.811-1.421-0.033-2.762-0.334-4.024-0.902s-2.391-1.362-3.387-2.381c-0.994-1.013-1.782-2.216-2.365-3.609-0.76-1.817-1.041-3.662-0.844-5.533 0.2-1.866 0.844-3.56 1.931-5.082s2.564-2.674 4.43-3.455c1.921-0.804 3.79-1.045 5.606-0.722 1.816 0.322 3.449 1.063 4.901 2.223 1.454 1.166 2.557 2.645 3.307 4.438 0.082 0.196 0.162 0.387 0.239 0.571 0.08 0.19 0.128 0.34 0.144 0.448l-16.658 6.969c0.706 1.342 1.618 2.418 2.735 3.227 1.109 0.806 2.327 1.302 3.654 1.491 1.323 0.197 2.608 0.034 3.854-0.487 1.265-0.529 2.329-1.357 3.192-2.483 0.86-1.117 1.296-2.291 1.307-3.522l2.456-0.336c-0.014 1.088-0.275 2.178-0.784 3.272-0.509 1.093-1.23 2.077-2.164 2.95-0.939 0.876-2.044 1.58-3.314 2.112zm-11.776-8.025 14.374-6.014c-0.692-1.377-1.592-2.461-2.702-3.252-1.106-0.799-2.315-1.282-3.625-1.448-1.316-0.163-2.61 0.021-3.88 0.552-1.265 0.529-2.295 1.317-3.091 2.364-0.789 1.044-1.285 2.247-1.487 3.609-0.211 1.358-0.074 2.754 0.411 4.189z" data-fill-palette-color="secondary"/>
<path d="m215.37 247.04-7.837-9.593 2.133-1.743 7.534 9.222c1.516 1.855 2.967 2.985 4.355 3.389 1.388 0.395 2.709 0.081 3.961-0.942 0.835-0.682 1.494-1.526 1.979-2.531 0.49-1.01 0.76-2.099 0.812-3.267 0.052-1.177-0.133-2.345-0.556-3.504l-8.399-10.281 2.126-1.736 11.241 13.759c0.24 0.294 0.481 0.458 0.724 0.492 0.233 0.033 0.484-0.043 0.754-0.23l1.383 1.693c-0.236 0.227-0.421 0.404-0.558 0.533-0.141 0.132-0.273 0.249-0.397 0.35-0.451 0.3-0.949 0.427-1.492 0.382-0.544-0.045-0.997-0.268-1.359-0.669l-1.849-2.137c0.312 1.833 0.148 3.604-0.493 5.313-0.64 1.709-1.672 3.144-3.094 4.307-1.716 1.402-3.501 1.863-5.353 1.383-1.849-0.475-3.72-1.872-5.615-4.19z" data-fill-palette-color="secondary"/>
<path d="m252.34 215.66 2.24 0.686c-0.061 0.226-0.137 0.587-0.227 1.086-0.081 0.496-0.244 1.057-0.489 1.682-0.241 0.62-0.58 1.24-1.017 1.86-0.448 0.637-0.991 1.153-1.629 1.551-0.64 0.388-1.324 0.574-2.053 0.556-0.729-0.017-1.458-0.282-2.187-0.795l-12.347-8.696-1.679 2.382-1.787-1.258 1.679-2.383-5.819-4.098 1.586-2.253 5.819 4.098 2.799-3.974 1.787 1.259-2.799 3.974 11.719 8.254c0.645 0.389 1.267 0.489 1.865 0.3 0.598-0.19 1.084-0.551 1.459-1.085 0.433-0.615 0.722-1.25 0.866-1.905 0.153-0.657 0.225-1.071 0.214-1.241z" data-fill-palette-color="secondary"/>
<path d="m259.4 178.6 11.485 4.532-1.011 2.563-10.956-4.324c-2.21-0.872-4.025-1.141-5.444-0.806-1.428 0.338-2.429 1.234-3.004 2.688-0.376 0.953-0.505 1.997-0.387 3.131s0.456 2.226 1.014 3.276c0.561 1.044 1.32 1.93 2.277 2.659l12.015 4.741-1.011 2.563-27.484-10.846 1.012-2.563 12.312 4.859c-1.147-1.354-1.879-2.898-2.196-4.633s-0.164-3.391 0.459-4.97c0.447-1.133 1.027-2.013 1.739-2.64 0.715-0.634 1.55-1.045 2.504-1.233 0.961-0.186 1.994-0.193 3.099-0.022 1.103 0.178 2.295 0.519 3.577 1.025z" data-fill-palette-color="secondary"/>
<path d="m3.249 143.52c0-6.063 4.915-10.978 10.978-10.978s10.978 4.915 10.977 10.978c0 6.063-4.915 10.978-10.977 10.978-6.063 0-10.978-4.915-10.978-10.978z" data-fill-palette-color="primary"/>
<path d="m254.8 143.52c0-6.063 4.915-10.978 10.977-10.978 6.063 0 10.978 4.915 10.978 10.978s-4.915 10.978-10.978 10.978-10.978-4.915-10.977-10.978z" data-fill-palette-color="primary"/>
</g>
</svg>
</svg>
</svg>
</svg>
</svg>
<rect width="280" height="280" fill="none" visibility="hidden"/>
</g>
</svg>
</g>
</svg>
